<svg xmlns="http://www.w3.org/2000/svg" width="300" height="200" viewBox="0 0 300 200">
    <!-- Listras vermelhas -->
    <rect width="100%" height="13%" fill="#B22234" />
    <rect width="100%" height="13%" y="13%" fill="white" />
    <rect width="100%" height="13%" y="26%" fill="#B22234" />
    <rect width="100%" height="13%" y="39%" fill="white" />
    <rect width="100%" height="13%" y="52%" fill="#B22234" />
    <rect width="100%" height="13%" y="65%" fill="white" />
    <rect width="100%" height="13%" y="78%" fill="#B22234" />

    <!-- Cantão azul com estrelas -->
    <rect width="40%" height="30%" fill="#3C3B6E" />
    <!-- Estrelas brancas -->
    <circle cx="15%" cy="22%" r="4%" fill="white" />
    <circle cx="25%" cy="18%" r="4%" fill="white" />
    <circle cx="25%" cy="25%" r="4%" fill="white" />
    <circle cx="35%" cy="22%" r="4%" fill="white" />
    <circle cx="15%" cy="28%" r="4%" fill="white" />
    <circle cx="25%" cy="32%" r="4%" fill="white" />
    <circle cx="35%" cy="28%" r="4%" fill="white" />
    <circle cx="15%" cy="35%" r="4%" fill="white" />
    <circle cx="25%" cy="38%" r="4%" fill="white" />
    <circle cx="35%" cy="35%" r="4%" fill="white" />
    <circle cx="15%" cy="42%" r="4%" fill="white" />

    <!-- Estrelas em linha inferior -->
    <circle cx="5%" cy="55%" r="4%" fill="white" />
    <circle cx="15%" cy="52%" r="4%" fill="white" />
    <circle cx="25%" cy="58%" r="4%" fill="white" />
    <circle cx="35%" cy="55%" r="4%" fill="white" />
    <circle cx="5%" cy="62%" r="4%" fill="white" />
    <circle cx="15%" cy="65%" r="4%" fill="white" />
    <circle cx="25%" cy="62%" r="4%" fill="white" />
    <circle cx="35%" cy="68%" r="4%" fill="white" />
</svg>